# xmcd
#
# Track frame offsets:
#	150
#	9567
#	24611
#	44327
#	61051
#	75407
#	89797
#	105381
#	112816
#	133414
#	150682
#	166991
#	179627
#	199355
#	208335
#	221846
#	230408
#	238527
#	253577
#	268319
#	278473
#	288233
#	300487
#	336055
#
# Disc length: 4794 seconds
#
# Revision: 1
# Processed by: cddbd v1.5PL3 Copyright (c) Steve Scherf et al.
# Submitted via: audiograbber 1.82.02
#
DISCID=5c12b818
DTITLE=Anglebert Jean Henry d' - Suites pour le clavecin - Frédérick Haas
DYEAR=1996
DGENRE=Classical
TTITLE0=Suite en sol majeur - Prélude
TTITLE1=Suite en sol majeur - Allemande
TTITLE2=Suite en sol majeur - Courante and double, 2è and 3è courantes
TTITLE3=Suite en sol majeur - Sarabande
TTITLE4=Suite en sol majeur - 1è and 2è gigues
TTITLE5=Suite en sol majeur - Gaillarde
TTITLE6=Suite en sol majeur - Chaconne en rondeau
TTITLE7=Suite en sol majeur - Gavotte, menuet
TTITLE8=Gaillarde en la mineur
TTITLE9=Suite en ré mineur - Prélude
TTITLE10=Suite en ré mineur - Allemande
TTITLE11=Suite en ré mineur - Courante and double, 2è courante
TTITLE12=Suite en ré mineur - Sarabande grave. Sarabande
TTITLE13=Suite en ré mineur - Gigue
TTITLE14=Suite en ré mineur - Gaillarde
TTITLE15=Suite en ré mineur - Gavotte, menuet
TTITLE16=Suite en sol mineur - Prélude
TTITLE17=Suite en sol mineur - Allemande
TTITLE18=Suite en sol mineur - 1è and 2è courantes
TTITLE19=Suite en sol mineur - Sarabande
TTITLE20=Suite en sol mineur - Gigue
TTITLE21=Suite en sol mineur - Gaillarde
TTITLE22=Suite en sol mineur - Passacaille
TTITLE23=Tombeau de Monsieur de Chambonnières
EXTD=
EXTT0=
EXTT1=
EXTT2=
EXTT3=
EXTT4=
EXTT5=
EXTT6=
EXTT7=
EXTT8=
EXTT9=
EXTT10=
EXTT11=
EXTT12=
EXTT13=
EXTT14=
EXTT15=
EXTT16=
EXTT17=
EXTT18=
EXTT19=
EXTT20=
EXTT21=
EXTT22=
EXTT23=
PLAYORDER=
